  0
SECTION
  2
HEADER
  9
$ANGBASE
  50
0.0
  9
$ANGDIR
  70
1
  9
$MEASUREMENT
  70
1
  0
ENDSEC
  0
SECTION
  2
TABLES
  0
TABLE
  2
LTYPE
  70
4
  0
LTYPE
  5
40F
  2
CONTINUOUS
  70
0
  3
Solid line
  72
65
  73
0
  40
0.0
  0
LTYPE
  5
410
  2
DASHDOT
 70
0
  3
Dash Dot ____ _ ____ _
 72
65
 73
4
 40
2.0
 49
1.25
 49
-0.25
 49
0.25
 49
-0.25
  0
LTYPE
  5
411
  2
DASHED
 70
0
  3
Dashed __ __ __ __ __
 72
65
 73
2
 40
0.75
 49
0.5
 49
-0.25
  0
LTYPE
  5
43B
  2
DOTTED
 70
0
  3
Dotted .  .  .  .
 72
65
 73
2
 40
0.2
 49
0.0
 49
-0.2
  0
ENDTAB
  0
TABLE
  2
STYLE
  70
4
  0
STYLE
  2
KICAD
  70
0
  40
0
  41
1
  42
1
  50
0
  71
0
  3
isocp.shx
  0
STYLE
  2
KICADB
  70
0
  40
0
  41
1
  42
1
  50
0
  71
0
  3
isocp.shx
  0
STYLE
  2
KICADI
  70
0
  40
0
  41
1
  42
1
  50
15
  71
0
  3
isocp.shx
  0
STYLE
  2
KICADBI
  70
0
  40
0
  41
1
  42
1
  50
15
  71
0
  3
isocp.shx
  0
ENDTAB
  0
TABLE
  2
LAYER
  70
1
  0
LAYER
  2
BLACK
  70
0
  62
7
  6
CONTINUOUS
  0
ENDTAB
  0
ENDSEC
  0
SECTION
  2
ENTITIES
0
LINE
8
BLACK
6
CONTINUOUS
10
100.2609459999999899
20
-66.4542780000000022
11
100.3870249999999942
21
-66.4880599999999902
0
LINE
8
BLACK
6
CONTINUOUS
10
100.3870249999999942
20
-66.4880599999999902
11
100.5000639999999947
21
-66.5533229999999918
0
LINE
8
BLACK
6
CONTINUOUS
10
100.5000639999999947
20
-66.5533229999999918
11
100.5923599999999993
21
-66.6456189999999964
0
LINE
8
BLACK
6
CONTINUOUS
10
100.5923599999999993
20
-66.6456189999999964
11
100.657623000000001
21
-66.7586579999999969
0
LINE
8
BLACK
6
CONTINUOUS
10
100.657623000000001
20
-66.7586579999999969
11
100.6914049999999889
21
-66.8847370000000012
0
LINE
8
BLACK
6
CONTINUOUS
10
100.6914049999999889
20
-66.8847370000000012
11
100.6956830000000025
21
-66.9500000000000028
0
LINE
8
BLACK
6
CONTINUOUS
10
100.6956830000000025
20
-66.9500000000000028
11
100.6956830000000025
21
-151.6456829999999911
0
LINE
8
BLACK
6
CONTINUOUS
10
100.6956830000000025
20
-151.6456829999999911
11
100.6914049999999889
21
-151.710946000000007
0
LINE
8
BLACK
6
CONTINUOUS
10
100.6914049999999889
20
-151.710946000000007
11
100.657623000000001
21
-151.8370249999999828
0
LINE
8
BLACK
6
CONTINUOUS
10
100.657623000000001
20
-151.8370249999999828
11
100.5923599999999993
21
-151.9500639999999976
0
LINE
8
BLACK
6
CONTINUOUS
10
100.5923599999999993
20
-151.9500639999999976
11
100.5000639999999947
21
-152.0423600000000022
0
LINE
8
BLACK
6
CONTINUOUS
10
100.5000639999999947
20
-152.0423600000000022
11
100.3870249999999942
21
-152.1076229999999896
0
LINE
8
BLACK
6
CONTINUOUS
10
100.3870249999999942
20
-152.1076229999999896
11
100.2609459999999899
21
-152.1414049999999918
0
LINE
8
BLACK
6
CONTINUOUS
10
100.2609459999999899
20
-152.1414049999999918
11
100.1956830000000025
21
-152.1456829999999911
0
LINE
8
BLACK
6
CONTINUOUS
10
100.1956830000000025
20
-152.1456829999999911
11
33.1899999999999977
21
-152.1456829999999911
0
LINE
8
BLACK
6
CONTINUOUS
10
33.1899999999999977
20
-152.1456829999999911
11
33.1247369999999961
21
-152.1414049999999918
0
LINE
8
BLACK
6
CONTINUOUS
10
33.1247369999999961
20
-152.1414049999999918
11
32.9986579999999989
21
-152.1076229999999896
0
LINE
8
BLACK
6
CONTINUOUS
10
32.9986579999999989
20
-152.1076229999999896
11
32.8856189999999984
21
-152.0423600000000022
0
LINE
8
BLACK
6
CONTINUOUS
10
32.8856189999999984
20
-152.0423600000000022
11
32.7933230000000009
21
-151.9500639999999976
0
LINE
8
BLACK
6
CONTINUOUS
10
32.7933230000000009
20
-151.9500639999999976
11
32.7280599999999993
21
-151.8370249999999828
0
LINE
8
BLACK
6
CONTINUOUS
10
32.7280599999999993
20
-151.8370249999999828
11
32.6942779999999971
21
-151.710946000000007
0
LINE
8
BLACK
6
CONTINUOUS
10
32.6942779999999971
20
-151.710946000000007
11
32.6899999999999977
21
-151.6456829999999911
0
LINE
8
BLACK
6
CONTINUOUS
10
32.6899999999999977
20
-151.6456829999999911
11
32.6899999999999977
21
-66.9500000000000028
0
LINE
8
BLACK
6
CONTINUOUS
10
32.6899999999999977
20
-66.9500000000000028
11
32.6942779999999971
21
-66.8847370000000012
0
LINE
8
BLACK
6
CONTINUOUS
10
32.6942779999999971
20
-66.8847370000000012
11
32.7280599999999993
21
-66.7586579999999969
0
LINE
8
BLACK
6
CONTINUOUS
10
32.7280599999999993
20
-66.7586579999999969
11
32.7933230000000009
21
-66.6456189999999964
0
LINE
8
BLACK
6
CONTINUOUS
10
32.7933230000000009
20
-66.6456189999999964
11
32.8856189999999984
21
-66.5533229999999918
0
LINE
8
BLACK
6
CONTINUOUS
10
32.8856189999999984
20
-66.5533229999999918
11
32.9986579999999989
21
-66.4880599999999902
0
LINE
8
BLACK
6
CONTINUOUS
10
32.9986579999999989
20
-66.4880599999999902
11
33.1247369999999961
21
-66.4542780000000022
0
LINE
8
BLACK
6
CONTINUOUS
10
33.1247369999999961
20
-66.4542780000000022
11
33.1899999999999977
21
-66.4500000000000028
0
LINE
8
BLACK
6
CONTINUOUS
10
33.1899999999999977
20
-66.4500000000000028
11
100.1956830000000025
21
-66.4500000000000028
0
LINE
8
BLACK
6
CONTINUOUS
10
100.1956830000000025
20
-66.4500000000000028
11
100.2609459999999899
21
-66.4542780000000022
0
LINE
8
BLACK
6
CONTINUOUS
10
33.6899999999999977
20
-67.4500000000000028
11
33.6899999999999977
21
-151.1456829999999911
0
LINE
8
BLACK
6
CONTINUOUS
10
33.6899999999999977
20
-151.1456829999999911
11
99.6956830000000025
21
-151.1456829999999911
0
LINE
8
BLACK
6
CONTINUOUS
10
99.6956830000000025
20
-151.1456829999999911
11
99.6956830000000025
21
-67.4500000000000028
0
LINE
8
BLACK
6
CONTINUOUS
10
99.6956830000000025
20
-67.4500000000000028
11
33.6899999999999977
21
-67.4500000000000028
0
CIRCLE
8
BLACK
10
50.4324999999999974
20
-84.8299999999999983
40
0.4
0
CIRCLE
8
BLACK
10
50.4324999999999974
20
-79.8299999999999983
40
0.4
0
CIRCLE
8
BLACK
10
54.6924999999999955
20
-74.7099999999999937
40
0.4
0
CIRCLE
8
BLACK
10
54.6924999999999955
20
-79.7099999999999937
40
0.4
0
CIRCLE
8
BLACK
10
42.8125
20
-84.7599999999999909
40
0.65
0
CIRCLE
8
BLACK
10
42.8125
20
-79.7599999999999909
40
0.65
0
CIRCLE
8
BLACK
10
42.8125
20
-74.7599999999999909
40
0.65
0
CIRCLE
8
BLACK
10
39.4899999999999949
20
-144.5900000000000034
40
1.25
0
CIRCLE
8
BLACK
10
84.0799999999999983
20
-113.2999999999999972
40
0.4
0
CIRCLE
8
BLACK
10
76.4599999999999937
20
-113.2999999999999972
40
0.4
0
CIRCLE
8
BLACK
10
74.1499999999999915
20
-143.9599999999999795
40
0.4
0
CIRCLE
8
BLACK
10
76.6899999999999977
20
-143.9599999999999795
40
0.4
0
CIRCLE
8
BLACK
10
79.2299999999999898
20
-143.9599999999999795
40
0.4
0
CIRCLE
8
BLACK
10
91.957499999999996
20
-103.8900000000000006
40
0.65
0
CIRCLE
8
BLACK
10
91.957499999999996
20
-98.8900000000000006
40
0.65
0
CIRCLE
8
BLACK
10
92.3100000000000023
20
-120.3499999999999943
40
0.4
0
CIRCLE
8
BLACK
10
92.3100000000000023
20
-122.8900000000000006
40
0.4
0
CIRCLE
8
BLACK
10
92.3100000000000023
20
-125.4299999999999926
40
0.4
0
CIRCLE
8
BLACK
10
94.4899999999999949
20
-72.7199999999999989
40
1.25
0
CIRCLE
8
BLACK
10
81.539999999999992
20
-122.9299999999999926
40
0.5
0
CIRCLE
8
BLACK
10
78.0099999999999909
20
-135.9000000000000057
40
0.4
0
CIRCLE
8
BLACK
10
78.0099999999999909
20
-133.3599999999999852
40
0.4
0
CIRCLE
8
BLACK
10
78.0099999999999909
20
-130.8199999999999932
40
0.4
0
CIRCLE
8
BLACK
10
78.0099999999999909
20
-128.2800000000000011
40
0.4
0
CIRCLE
8
BLACK
10
70.3900000000000006
20
-128.2800000000000011
40
0.4
0
CIRCLE
8
BLACK
10
70.3900000000000006
20
-130.8199999999999932
40
0.4
0
CIRCLE
8
BLACK
10
70.3900000000000006
20
-133.3599999999999852
40
0.4
0
CIRCLE
8
BLACK
10
70.3900000000000006
20
-135.9000000000000057
40
0.4
0
CIRCLE
8
BLACK
10
56.0999999999999943
20
-93.2999999999999972
40
0.4
0
CIRCLE
8
BLACK
10
56.0999999999999943
20
-88.2999999999999972
40
0.4
0
CIRCLE
8
BLACK
10
69.5999999999999943
20
-113.2199999999999989
40
0.4
0
CIRCLE
8
BLACK
10
67.0600000000000023
20
-113.2199999999999989
40
0.4
0
CIRCLE
8
BLACK
10
64.519999999999996
20
-113.2199999999999989
40
0.4
0
CIRCLE
8
BLACK
10
88.4699999999999989
20
-113.3099999999999881
40
0.5
0
CIRCLE
8
BLACK
10
64.4699999999999989
20
-139.9899999999999807
40
0.4
0
CIRCLE
8
BLACK
10
64.4699999999999989
20
-147.6099999999999852
40
0.4
0
CIRCLE
8
BLACK
10
70.4500000000000028
20
-103.6899999999999977
40
0.4
0
CIRCLE
8
BLACK
10
62.8299999999999983
20
-103.6899999999999977
40
0.4
0
CIRCLE
8
BLACK
10
82.8199999999999932
20
-90.7999999999999972
40
0.5
0
CIRCLE
8
BLACK
10
64.4500000000000028
20
-130.8599999999999852
40
0.4
0
CIRCLE
8
BLACK
10
64.4500000000000028
20
-135.8599999999999852
40
0.4
0
CIRCLE
8
BLACK
10
51.4799999999999969
20
-93.4299999999999926
40
0.4
0
CIRCLE
8
BLACK
10
43.8599999999999994
20
-93.4299999999999926
40
0.4
0
CIRCLE
8
BLACK
10
62.2999999999999972
20
-88.1799999999999926
40
0.4
0
CIRCLE
8
BLACK
10
62.2999999999999972
20
-90.7199999999999989
40
0.4
0
CIRCLE
8
BLACK
10
62.2999999999999972
20
-93.2599999999999909
40
0.4
0
CIRCLE
8
BLACK
10
62.2999999999999972
20
-95.7999999999999972
40
0.4
0
CIRCLE
8
BLACK
10
69.9200000000000017
20
-95.7999999999999972
40
0.4
0
CIRCLE
8
BLACK
10
69.9200000000000017
20
-93.2599999999999909
40
0.4
0
CIRCLE
8
BLACK
10
69.9200000000000017
20
-90.7199999999999989
40
0.4
0
CIRCLE
8
BLACK
10
69.9200000000000017
20
-88.1799999999999926
40
0.4
0
CIRCLE
8
BLACK
10
76.2999999999999972
20
-90.6799999999999926
40
0.4
0
CIRCLE
8
BLACK
10
76.2999999999999972
20
-98.2999999999999972
40
0.4
0
CIRCLE
8
BLACK
10
53.1599999999999966
20
-130.9699999999999989
40
0.4
0
CIRCLE
8
BLACK
10
55.6999999999999957
20
-130.9699999999999989
40
0.4
0
CIRCLE
8
BLACK
10
58.2399999999999949
20
-130.9699999999999989
40
0.4
0
CIRCLE
8
BLACK
10
58.769999999999996
20
-140.0999999999999943
40
0.5
0
CIRCLE
8
BLACK
10
83.9899999999999949
20
-103.8599999999999994
40
0.4
0
CIRCLE
8
BLACK
10
76.3699999999999903
20
-103.8599999999999994
40
0.4
0
CIRCLE
8
BLACK
10
53.0700000000000003
20
-115.8499999999999943
40
0.4
0
CIRCLE
8
BLACK
10
53.0700000000000003
20
-123.4699999999999989
40
0.4
0
CIRCLE
8
BLACK
10
50.509999999999998
20
-103.7349999999999994
40
0.4
0
CIRCLE
8
BLACK
10
53.0499999999999972
20
-103.7349999999999994
40
0.4
0
CIRCLE
8
BLACK
10
55.5899999999999963
20
-103.7349999999999994
40
0.4
0
CIRCLE
8
BLACK
10
81.269999999999996
20
-75.6899999999999977
40
0.65
0
CIRCLE
8
BLACK
10
76.269999999999996
20
-75.6899999999999977
40
0.65
0
CIRCLE
8
BLACK
10
84.8399999999999892
20
-128.3100000000000023
40
0.4
0
CIRCLE
8
BLACK
10
84.8399999999999892
20
-135.9300000000000068
40
0.4
0
CIRCLE
8
BLACK
10
67.039999999999992
20
-120.3599999999999994
40
0.4
0
CIRCLE
8
BLACK
10
74.6599999999999966
20
-120.3599999999999994
40
0.4
0
CIRCLE
8
BLACK
10
46.2999999999999972
20
-115.7399999999999949
40
0.5
0
CIRCLE
8
BLACK
10
93.6400000000000006
20
-144.789999999999992
40
1.25
0
CIRCLE
8
BLACK
10
50.4324999999999974
20
-84.8299999999999983
40
0.4
0
CIRCLE
8
BLACK
10
50.4324999999999974
20
-79.8299999999999983
40
0.4
0
CIRCLE
8
BLACK
10
54.6924999999999955
20
-74.7099999999999937
40
0.4
0
CIRCLE
8
BLACK
10
54.6924999999999955
20
-79.7099999999999937
40
0.4
0
CIRCLE
8
BLACK
10
42.8125
20
-84.7599999999999909
40
0.65
0
CIRCLE
8
BLACK
10
42.8125
20
-79.7599999999999909
40
0.65
0
CIRCLE
8
BLACK
10
42.8125
20
-74.7599999999999909
40
0.65
0
CIRCLE
8
BLACK
10
39.4899999999999949
20
-144.5900000000000034
40
1.25
0
CIRCLE
8
BLACK
10
84.0799999999999983
20
-113.2999999999999972
40
0.4
0
CIRCLE
8
BLACK
10
76.4599999999999937
20
-113.2999999999999972
40
0.4
0
CIRCLE
8
BLACK
10
74.1499999999999915
20
-143.9599999999999795
40
0.4
0
CIRCLE
8
BLACK
10
76.6899999999999977
20
-143.9599999999999795
40
0.4
0
CIRCLE
8
BLACK
10
79.2299999999999898
20
-143.9599999999999795
40
0.4
0
CIRCLE
8
BLACK
10
91.957499999999996
20
-103.8900000000000006
40
0.65
0
CIRCLE
8
BLACK
10
91.957499999999996
20
-98.8900000000000006
40
0.65
0
CIRCLE
8
BLACK
10
92.3100000000000023
20
-120.3499999999999943
40
0.4
0
CIRCLE
8
BLACK
10
92.3100000000000023
20
-122.8900000000000006
40
0.4
0
CIRCLE
8
BLACK
10
92.3100000000000023
20
-125.4299999999999926
40
0.4
0
CIRCLE
8
BLACK
10
94.4899999999999949
20
-72.7199999999999989
40
1.25
0
CIRCLE
8
BLACK
10
81.539999999999992
20
-122.9299999999999926
40
0.5
0
CIRCLE
8
BLACK
10
78.0099999999999909
20
-135.9000000000000057
40
0.4
0
CIRCLE
8
BLACK
10
78.0099999999999909
20
-133.3599999999999852
40
0.4
0
CIRCLE
8
BLACK
10
78.0099999999999909
20
-130.8199999999999932
40
0.4
0
CIRCLE
8
BLACK
10
78.0099999999999909
20
-128.2800000000000011
40
0.4
0
CIRCLE
8
BLACK
10
70.3900000000000006
20
-128.2800000000000011
40
0.4
0
CIRCLE
8
BLACK
10
70.3900000000000006
20
-130.8199999999999932
40
0.4
0
CIRCLE
8
BLACK
10
70.3900000000000006
20
-133.3599999999999852
40
0.4
0
CIRCLE
8
BLACK
10
70.3900000000000006
20
-135.9000000000000057
40
0.4
0
CIRCLE
8
BLACK
10
56.0999999999999943
20
-93.2999999999999972
40
0.4
0
CIRCLE
8
BLACK
10
56.0999999999999943
20
-88.2999999999999972
40
0.4
0
CIRCLE
8
BLACK
10
69.5999999999999943
20
-113.2199999999999989
40
0.4
0
CIRCLE
8
BLACK
10
67.0600000000000023
20
-113.2199999999999989
40
0.4
0
CIRCLE
8
BLACK
10
64.519999999999996
20
-113.2199999999999989
40
0.4
0
CIRCLE
8
BLACK
10
88.4699999999999989
20
-113.3099999999999881
40
0.5
0
CIRCLE
8
BLACK
10
64.4699999999999989
20
-139.9899999999999807
40
0.4
0
CIRCLE
8
BLACK
10
64.4699999999999989
20
-147.6099999999999852
40
0.4
0
CIRCLE
8
BLACK
10
70.4500000000000028
20
-103.6899999999999977
40
0.4
0
CIRCLE
8
BLACK
10
62.8299999999999983
20
-103.6899999999999977
40
0.4
0
CIRCLE
8
BLACK
10
82.8199999999999932
20
-90.7999999999999972
40
0.5
0
CIRCLE
8
BLACK
10
64.4500000000000028
20
-130.8599999999999852
40
0.4
0
CIRCLE
8
BLACK
10
64.4500000000000028
20
-135.8599999999999852
40
0.4
0
CIRCLE
8
BLACK
10
51.4799999999999969
20
-93.4299999999999926
40
0.4
0
CIRCLE
8
BLACK
10
43.8599999999999994
20
-93.4299999999999926
40
0.4
0
CIRCLE
8
BLACK
10
62.2999999999999972
20
-88.1799999999999926
40
0.4
0
CIRCLE
8
BLACK
10
62.2999999999999972
20
-90.7199999999999989
40
0.4
0
CIRCLE
8
BLACK
10
62.2999999999999972
20
-93.2599999999999909
40
0.4
0
CIRCLE
8
BLACK
10
62.2999999999999972
20
-95.7999999999999972
40
0.4
0
CIRCLE
8
BLACK
10
69.9200000000000017
20
-95.7999999999999972
40
0.4
0
CIRCLE
8
BLACK
10
69.9200000000000017
20
-93.2599999999999909
40
0.4
0
CIRCLE
8
BLACK
10
69.9200000000000017
20
-90.7199999999999989
40
0.4
0
CIRCLE
8
BLACK
10
69.9200000000000017
20
-88.1799999999999926
40
0.4
0
CIRCLE
8
BLACK
10
76.2999999999999972
20
-90.6799999999999926
40
0.4
0
CIRCLE
8
BLACK
10
76.2999999999999972
20
-98.2999999999999972
40
0.4
0
CIRCLE
8
BLACK
10
53.1599999999999966
20
-130.9699999999999989
40
0.4
0
CIRCLE
8
BLACK
10
55.6999999999999957
20
-130.9699999999999989
40
0.4
0
CIRCLE
8
BLACK
10
58.2399999999999949
20
-130.9699999999999989
40
0.4
0
CIRCLE
8
BLACK
10
58.769999999999996
20
-140.0999999999999943
40
0.5
0
CIRCLE
8
BLACK
10
83.9899999999999949
20
-103.8599999999999994
40
0.4
0
CIRCLE
8
BLACK
10
76.3699999999999903
20
-103.8599999999999994
40
0.4
0
CIRCLE
8
BLACK
10
53.0700000000000003
20
-115.8499999999999943
40
0.4
0
CIRCLE
8
BLACK
10
53.0700000000000003
20
-123.4699999999999989
40
0.4
0
CIRCLE
8
BLACK
10
50.509999999999998
20
-103.7349999999999994
40
0.4
0
CIRCLE
8
BLACK
10
53.0499999999999972
20
-103.7349999999999994
40
0.4
0
CIRCLE
8
BLACK
10
55.5899999999999963
20
-103.7349999999999994
40
0.4
0
CIRCLE
8
BLACK
10
81.269999999999996
20
-75.6899999999999977
40
0.65
0
CIRCLE
8
BLACK
10
76.269999999999996
20
-75.6899999999999977
40
0.65
0
CIRCLE
8
BLACK
10
84.8399999999999892
20
-128.3100000000000023
40
0.4
0
CIRCLE
8
BLACK
10
84.8399999999999892
20
-135.9300000000000068
40
0.4
0
CIRCLE
8
BLACK
10
67.039999999999992
20
-120.3599999999999994
40
0.4
0
CIRCLE
8
BLACK
10
74.6599999999999966
20
-120.3599999999999994
40
0.4
0
CIRCLE
8
BLACK
10
46.2999999999999972
20
-115.7399999999999949
40
0.5
0
CIRCLE
8
BLACK
10
93.6400000000000006
20
-144.789999999999992
40
1.25
  0
ENDSEC
  0
EOF
